<svg width="24" height="24" viewBox="0 0 24 24" fill="none" xmlns="http://www.w3.org/2000/svg">
<path d="M11.575 10.875L7.675 14.775C7.49167 14.9583 7.25833 15.05 6.975 15.05C6.69167 15.05 6.45833 14.9583 6.275 14.775C6.09167 14.5917 6 14.3583 6 14.075C6 13.7917 6.09167 13.5583 6.275 13.375L10.875 8.775C10.975 8.675 11.0833 8.60417 11.2 8.5625C11.3167 8.52083 11.4417 8.5 11.575 8.5C11.7083 8.5 11.8333 8.52083 11.95 8.5625C12.0667 8.60417 12.175 8.675 12.275 8.775L16.875 13.375C17.0583 13.5583 17.15 13.7917 17.15 14.075C17.15 14.3583 17.0583 14.5917 16.875 14.775C16.6917 14.9583 16.4583 15.05 16.175 15.05C15.8917 15.05 15.6583 14.9583 15.475 14.775L11.575 10.875Z" fill="#F5F5F5"/>
</svg>
