<svg width="16" height="16" viewBox="0 0 16 16" fill="none" xmlns="http://www.w3.org/2000/svg">
<path d="M7.99967 13.7835C7.84412 13.7835 7.68579 13.7557 7.52467 13.7001C7.36356 13.6446 7.2219 13.5557 7.09967 13.4335L5.94967 12.3835C4.7719 11.3057 3.70801 10.2362 2.75801 9.17512C1.80801 8.11401 1.33301 6.94457 1.33301 5.66679C1.33301 4.62234 1.68301 3.75012 2.38301 3.05012C3.08301 2.35012 3.95523 2.00012 4.99967 2.00012C5.58856 2.00012 6.14412 2.12512 6.66634 2.37512C7.18856 2.62512 7.63301 2.96679 7.99967 3.40012C8.36634 2.96679 8.81079 2.62512 9.33301 2.37512C9.85523 2.12512 10.4108 2.00012 10.9997 2.00012C12.0441 2.00012 12.9163 2.35012 13.6163 3.05012C14.3163 3.75012 14.6663 4.62234 14.6663 5.66679C14.6663 6.94457 14.1941 8.11679 13.2497 9.18346C12.3052 10.2501 11.233 11.3223 10.033 12.4001L8.89967 13.4335C8.77745 13.5557 8.63579 13.6446 8.47467 13.7001C8.31356 13.7557 8.15523 13.7835 7.99967 13.7835ZM7.36634 4.73346C7.04412 4.2779 6.69967 3.93068 6.33301 3.69179C5.96634 3.4529 5.5219 3.33346 4.99967 3.33346C4.33301 3.33346 3.77745 3.55568 3.33301 4.00012C2.88856 4.44457 2.66634 5.00012 2.66634 5.66679C2.66634 6.24457 2.8719 6.85846 3.28301 7.50846C3.69412 8.15846 4.18579 8.78901 4.75801 9.40012C5.33023 10.0112 5.91912 10.5835 6.52467 11.1168C7.13023 11.6501 7.6219 12.089 7.99967 12.4335C8.37745 12.089 8.86912 11.6501 9.47467 11.1168C10.0802 10.5835 10.6691 10.0112 11.2413 9.40012C11.8136 8.78901 12.3052 8.15846 12.7163 7.50846C13.1275 6.85846 13.333 6.24457 13.333 5.66679C13.333 5.00012 13.1108 4.44457 12.6663 4.00012C12.2219 3.55568 11.6663 3.33346 10.9997 3.33346C10.4775 3.33346 10.033 3.4529 9.66634 3.69179C9.29967 3.93068 8.95523 4.2779 8.63301 4.73346C8.55523 4.84457 8.46079 4.9279 8.34967 4.98346C8.23856 5.03901 8.1219 5.06679 7.99967 5.06679C7.87745 5.06679 7.76079 5.03901 7.64967 4.98346C7.53856 4.9279 7.44412 4.84457 7.36634 4.73346Z" fill="#9697CD"/>
</svg>
