<svg width="162" height="48" viewBox="0 0 162 48" fill="none" xmlns="http://www.w3.org/2000/svg">
<g clip-path="url(#clip0_19121_16136)">
<path d="M0 0H162V48H0V0Z" fill="white"/>
<path d="M81.1236 6.58001C81.5572 6.71003 82.0439 7.01821 82.2087 7.4593C81.9379 7.61725 81.67 7.77808 81.405 7.9447C81.1332 7.62977 80.8046 7.42367 80.3748 7.52479C79.81 7.65385 79.5527 8.32704 79.7821 8.83362C80.0163 9.44325 80.9424 9.5463 81.2903 8.98483C80.9675 8.9752 80.6446 8.97616 80.3218 8.9752C80.3092 8.69398 80.3112 8.41564 80.3314 8.13442C81.006 8.13635 81.6806 8.13635 82.3562 8.13442C82.4352 8.84325 82.254 9.57809 81.6604 10.0211C80.9202 10.5604 79.8534 10.4304 79.2222 9.78418C78.616 9.17937 78.5283 8.14695 78.9629 7.42367C79.3918 6.70618 80.3179 6.31324 81.1236 6.58001Z" fill="#262626"/>
<path d="M85.2527 6.5275C86.0738 6.36763 86.9421 6.84339 87.2948 7.59363C87.5049 8.02124 87.5135 8.55671 87.395 9.01129C87.1232 9.90214 86.2106 10.4858 85.2864 10.3355C84.3776 10.2132 83.6346 9.3657 83.6625 8.44596C83.625 7.51851 84.3429 6.6787 85.2527 6.5275Z" fill="#262626"/>
<path d="M108.332 6.50079C108.914 6.45167 109.532 6.69918 109.913 7.14316C110.471 7.75568 110.571 8.70528 110.137 9.41411C109.715 10.1653 108.772 10.5342 107.95 10.278C107.118 10.0401 106.529 9.2186 106.597 8.3499C106.596 7.38393 107.386 6.59709 108.332 6.50079Z" fill="#262626"/>
<path d="M88.3706 6.58176C88.7214 6.57983 89.0712 6.58079 89.4211 6.58272C89.7082 7.29829 89.9598 8.02734 90.2421 8.74484C90.5573 8.0466 90.8059 7.30888 91.0719 6.58946C91.441 6.57598 91.8091 6.57694 92.1773 6.5885C91.7542 7.69508 91.3167 8.79588 90.8955 9.90246C90.8396 10.0171 90.8165 10.1962 90.6951 10.253C90.3684 10.2819 90.0378 10.2704 89.7131 10.2318C89.3228 9.10503 88.8621 7.99845 88.4448 6.88031C88.4188 6.78111 88.3937 6.68192 88.3706 6.58176Z" fill="#262626"/>
<path d="M93.3714 6.59519C94.2464 6.56437 95.1253 6.58653 96.0023 6.58364C96.0042 6.8976 96.0042 7.21157 96.0023 7.52649C95.4703 7.53227 94.9384 7.52649 94.4074 7.53131C94.4064 7.69696 94.4054 7.86357 94.4045 8.02922C94.7533 8.03115 95.1022 8.03115 95.4511 8.03211C95.452 8.30466 95.4501 8.57625 95.4462 8.8488C95.0993 8.8488 94.7533 8.8488 94.4064 8.85073C94.4045 9.00482 94.4025 9.15988 94.4006 9.31494C94.9345 9.33516 95.4665 9.31686 96.0004 9.32842C96.0013 9.61734 96.0177 9.90916 95.9956 10.1971L95.9204 10.2896C95.3961 10.3069 94.8719 10.2876 94.3476 10.2944C94.0045 10.2896 93.6904 10.331 93.356 10.225C93.3743 9.01542 93.3463 7.80482 93.3714 6.59519Z" fill="#262626"/>
<path d="M97.4738 6.57666C98.1022 6.59303 98.7334 6.56318 99.3617 6.59014C99.9698 6.64697 100.508 7.13814 100.495 7.77088C100.527 8.26109 100.247 8.59335 99.8841 8.87361C100.119 9.34167 100.486 9.78469 100.62 10.2913C100.296 10.272 99.8812 10.35 99.5786 10.2489C99.2586 9.88581 99.1179 9.36382 98.7951 9.00555C98.6823 9.00652 98.5705 9.02385 98.4587 9.05756C98.4722 9.47457 98.4925 9.881 98.4395 10.2961C98.1214 10.2932 97.8034 10.2932 97.4854 10.297C97.4247 9.7818 97.4671 9.25403 97.4545 8.73493C97.4651 8.01647 97.4324 7.29416 97.4738 6.57666Z" fill="#262626"/>
<path d="M101.942 6.58724C102.232 6.57857 102.521 6.57761 102.811 6.5882C103.273 7.21709 103.753 7.83443 104.225 8.45562C104.236 7.83154 104.223 7.20746 104.233 6.58339C104.561 6.57761 104.888 6.57761 105.216 6.58916C105.199 7.82383 105.242 9.06236 105.194 10.2951C104.896 10.2585 104.418 10.4184 104.25 10.1073C103.822 9.54486 103.403 8.97472 102.966 8.41902C102.961 9.02961 102.966 9.64117 102.964 10.2518C102.621 10.2691 102.279 10.271 101.937 10.2421C101.943 9.02383 101.933 7.80554 101.942 6.58724Z" fill="#262626"/>
<path d="M114.155 6.58177C115.02 6.57984 115.885 6.58081 116.75 6.58081C116.765 6.89092 116.765 7.20007 116.744 7.51018C116.212 7.50729 115.68 7.50055 115.149 7.515C115.147 7.68835 115.145 7.86074 115.143 8.0341C115.501 8.09573 115.855 8.07647 116.215 8.08129C116.241 8.36155 116.242 8.63988 116.228 8.9211C115.867 8.93939 115.507 8.93554 115.146 8.94132C115.135 9.39204 115.182 9.85914 115.111 10.3022C114.795 10.2935 114.479 10.2925 114.162 10.2945C114.14 9.05689 114.156 7.81933 114.155 6.58177Z" fill="#262626"/>
<path d="M118.166 6.58574C119.043 6.57707 119.92 6.57997 120.797 6.58382C120.803 6.89778 120.803 7.21078 120.796 7.52475C120.266 7.53438 119.736 7.52764 119.206 7.52956C119.204 7.69714 119.203 7.86375 119.203 8.03133C119.553 8.03037 119.901 8.03037 120.251 8.03422C120.25 8.30196 120.249 8.57066 120.246 8.83839C119.899 8.85284 119.55 8.84995 119.201 8.85188C119.202 9.00886 119.203 9.1668 119.204 9.32379C119.733 9.32571 120.262 9.32186 120.792 9.32764C120.801 9.63101 120.803 9.93438 120.81 10.2378C120.661 10.283 120.527 10.3013 120.369 10.2975C119.644 10.2917 118.918 10.2946 118.193 10.2955C118.167 10.0962 118.154 9.89971 118.157 9.69842C118.167 8.66118 118.15 7.62298 118.166 6.58574Z" fill="#262626"/>
<path d="M122.246 6.5836C122.778 6.58264 123.31 6.57397 123.842 6.5836C124.612 6.62116 125.336 7.07766 125.587 7.82502C125.881 8.58874 125.559 9.52678 124.862 9.95535C124.426 10.2491 123.867 10.2895 123.355 10.2963C122.958 10.2857 122.606 10.3329 122.232 10.2375C122.253 9.0202 122.228 7.8019 122.246 6.5836Z" fill="#262626"/>
<path d="M127.037 6.58862C127.913 6.57129 128.789 6.58477 129.665 6.58188C129.679 6.89777 129.679 7.21077 129.665 7.52666C129.141 7.53148 128.618 7.53052 128.094 7.52763C128.093 7.6952 128.091 7.86374 128.089 8.03132C128.433 8.03036 128.776 8.03036 129.12 8.03228C129.125 8.30483 129.122 8.57739 129.106 8.84898C128.766 8.84898 128.427 8.84898 128.089 8.84898C128.091 9.00788 128.095 9.16776 128.098 9.32666C128.622 9.32474 129.147 9.31607 129.67 9.33437C129.675 9.64063 129.676 9.94689 129.677 10.2531C129.33 10.3254 129.008 10.2888 128.656 10.2946C128.127 10.2975 127.597 10.2878 127.068 10.3013C127.045 10.1328 127.033 9.96423 127.032 9.79472C127.038 8.72666 127.031 7.65764 127.037 6.58862Z" fill="#262626"/>
<path d="M131.12 6.58256C131.774 6.59123 132.434 6.55656 133.087 6.59797C133.794 6.68946 134.332 7.41177 134.111 8.11001C134.029 8.43842 133.818 8.65319 133.557 8.85254C133.778 9.33023 134.062 9.77903 134.326 10.2336C133.998 10.3029 133.531 10.353 133.219 10.2403C132.973 9.93986 132.823 9.55174 132.611 9.22333C132.5 8.99219 132.38 9.00856 132.146 8.99508C132.142 9.38994 132.135 9.78481 132.152 10.1768C132.078 10.2269 132.034 10.2943 131.937 10.2904C131.663 10.3039 131.371 10.3203 131.106 10.2432C131.13 9.02397 131.105 7.80278 131.12 6.58256Z" fill="#262626"/>
<path d="M136.85 6.59149C137.167 6.57126 137.493 6.57993 137.81 6.5886C138.156 7.43803 138.518 8.28073 138.866 9.12921C139.026 9.52503 139.224 9.88811 139.309 10.2936C139.003 10.2916 138.693 10.3099 138.388 10.2839C138.178 10.204 138.136 9.83418 138.034 9.64831C137.574 9.64831 137.112 9.65023 136.651 9.64542C136.545 9.839 136.488 10.1684 136.305 10.2849C135.988 10.3013 135.638 10.334 135.331 10.2368C135.853 9.02905 136.343 7.80593 136.85 6.59149Z" fill="#262626"/>
<path d="M140.556 6.58249C140.906 6.58057 141.255 6.58057 141.604 6.58057C141.61 7.48297 141.604 8.38538 141.607 9.28779C142.115 9.28683 142.622 9.28394 143.131 9.28971C143.131 9.59309 143.147 9.89838 143.127 10.2008C143.074 10.274 143.006 10.3058 142.925 10.2942C142.14 10.2971 141.354 10.2913 140.569 10.2942C140.534 9.05858 140.556 7.81909 140.556 6.58249Z" fill="#262626"/>
<path d="M98.4731 7.50905C98.7275 7.50905 98.9945 7.48979 99.246 7.53409C99.5197 7.57647 99.537 8.03682 99.2759 8.10712C99.0099 8.13698 98.7362 8.11964 98.4692 8.11675C98.4702 7.91451 98.4712 7.7113 98.4731 7.50905Z" fill="white"/>
<path d="M123.294 7.56574C123.612 7.55322 123.984 7.57922 124.27 7.73331C124.729 8.02224 124.755 8.71084 124.361 9.06429C124.029 9.31469 123.675 9.26558 123.282 9.27424C123.289 8.70603 123.262 8.13299 123.294 7.56574Z" fill="white"/>
<path d="M132.151 7.51296C132.406 7.49851 132.677 7.48695 132.928 7.54185C133.2 7.64105 133.185 8.03398 132.906 8.11007C132.653 8.13607 132.393 8.12066 132.138 8.11777C132.139 7.91649 132.134 7.71328 132.151 7.51296Z" fill="white"/>
<path d="M85.4006 7.57285C85.7716 7.47557 86.1889 7.72694 86.3209 8.0775C86.5166 8.50511 86.32 9.04347 85.8911 9.23898C85.4941 9.43545 84.9968 9.21009 84.8281 8.81618C84.5689 8.33561 84.8686 7.6913 85.4006 7.57285Z" fill="white"/>
<path d="M108.244 7.59769C108.497 7.50138 108.757 7.55917 108.97 7.71807C109.452 8.06478 109.413 8.91615 108.885 9.20218C108.559 9.39769 108.164 9.31872 107.91 9.04809C107.481 8.62337 107.64 7.77297 108.244 7.59769Z" fill="white"/>
<path d="M137.33 7.92236L137.344 7.95703C137.45 8.22092 137.557 8.48384 137.663 8.74773C137.476 8.74965 137.29 8.75158 137.103 8.7535C137.077 8.72654 137.052 8.69957 137.027 8.67164C137.136 8.42509 137.236 8.17469 137.33 7.92236Z" fill="white"/>
<path d="M78.6185 14.1759C78.6089 16.7377 78.6262 19.3004 78.6098 21.8622C76.4251 21.8381 74.2375 21.8564 72.0527 21.8535C72.0576 19.2956 72.0556 16.7377 72.0537 14.1797C74.2423 14.1682 76.4309 14.1759 78.6185 14.1759Z" fill="#00CF00"/>
<path d="M78.6185 14.1758C79.2045 14.1873 79.7914 14.1681 80.3773 14.1844C81.8595 14.2721 83.2087 15.2833 83.7098 16.6808C84.2322 18.0435 83.8939 19.6345 82.883 20.6814C82.219 21.3893 81.2986 21.7909 80.3359 21.8641C79.7837 21.8785 79.2266 21.8775 78.6744 21.8641L78.6099 21.8621C78.6262 19.3003 78.6089 16.7376 78.6185 14.1758Z" fill="#173DFF"/>
<path d="M118.825 14.1768C119.45 14.1796 120.075 14.1748 120.699 14.1796C120.698 16.7308 120.702 19.2821 120.697 21.8333C120.684 22.075 120.746 22.3735 120.644 22.5951C120.436 22.7183 120.121 22.6538 119.886 22.6692C119.161 22.6403 118.365 22.7424 117.669 22.5556C116.099 22.1742 114.838 20.822 114.561 19.232C114.261 17.7633 114.813 16.178 115.953 15.2063C116.737 14.5225 117.786 14.1488 118.825 14.1768Z" fill="#00CF00"/>
<path d="M86.4624 14.1851C88.491 17.3305 90.5158 20.4778 92.5434 23.6233C92.9867 24.3263 93.4551 25.014 93.8859 25.7247L93.8965 25.7411C91.4226 25.7324 88.9488 25.743 86.4749 25.7353C86.4614 21.8868 86.4855 18.0335 86.4624 14.1851Z" fill="#FFCF00"/>
<path d="M86.4624 14.1854C88.8977 14.169 91.334 14.1854 93.7693 14.1777C95.3025 14.1372 96.8503 14.7536 97.9258 15.8496C98.822 16.7163 99.3993 17.9096 99.5833 19.1366C99.6383 19.672 99.6325 20.2383 99.5843 20.7738C99.4051 21.9796 98.8471 23.1526 97.9768 24.0146C96.9216 25.1134 95.4134 25.7539 93.8859 25.725C93.4551 25.0143 92.9867 24.3266 92.5434 23.6236C90.5158 20.4781 88.491 17.3308 86.4624 14.1854Z" fill="#173DFF"/>
<path d="M106.566 14.3251C109.192 18.7745 111.843 23.2769 114.47 27.7187L114.508 27.7822C114.436 29.1344 114.492 30.4952 114.475 31.8493C114.48 32.3472 114.452 32.8365 114.506 33.3334C115.594 33.3286 116.681 33.3228 117.768 33.3363C116.311 33.3768 114.849 33.3363 113.396 33.3238C113.42 31.726 112.855 30.1418 111.848 28.9032C110.32 26.9771 107.755 25.9976 105.331 26.432C103.717 26.691 102.21 27.5771 101.172 28.8349C100.149 30.0744 99.5265 31.7077 99.5786 33.3219C98.1147 33.3479 96.646 33.3671 95.1821 33.3296H95.2178C96.4032 33.3248 97.5885 33.3276 98.7748 33.3276C98.4067 32.6737 97.9634 32.0631 97.5683 31.4236C97.3505 31.0885 97.1539 30.7447 96.9033 30.4307L96.9245 30.396C100.081 25.0345 103.246 19.6788 106.402 14.3174C106.45 14.2268 106.505 14.2297 106.566 14.3251Z" fill="#FFCF00"/>
<path d="M120.716 14.1777C123.067 14.1797 125.419 14.1787 127.77 14.1787C127.763 16.4949 127.771 18.8121 127.766 21.1283C126.376 21.1427 124.981 21.1023 123.591 21.1504C122.636 21.084 121.673 21.1321 120.716 21.1187C120.716 18.8053 120.715 16.492 120.716 14.1777Z" fill="#173DFF"/>
<path d="M128.887 14.1758C131.073 14.1796 133.259 14.1777 135.446 14.1767C135.443 20.5581 135.451 26.9414 135.441 33.3228C133.259 33.3228 131.077 33.319 128.894 33.3247C128.871 31.544 128.898 29.7623 128.881 27.9816C128.889 27.4682 128.889 26.9559 128.881 26.4426C128.893 22.3552 128.882 18.2641 128.887 14.1758Z" fill="#00CF00"/>
<path d="M136.541 14.1812C138.737 14.1764 140.933 14.1735 143.13 14.1831C143.133 18.4178 143.126 22.6534 143.133 26.8881L143.083 26.8891C140.912 26.8958 138.74 26.8862 136.569 26.8939C136.541 26.5539 136.532 26.2188 136.539 25.8778C136.541 21.9793 136.539 18.0798 136.541 14.1812Z" fill="#FFCF00"/>
<path d="M33.9873 16.8788C34.1637 16.8576 34.3449 16.8692 34.5212 16.8711C34.3825 17.1157 34.2254 17.3488 34.0644 17.5799C33.9285 17.5414 33.7936 17.499 33.6597 17.4547C33.7657 17.2621 33.862 17.0598 33.9873 16.8788Z" fill="#262626"/>
<path d="M11.5146 17.9575C11.5386 19.2481 11.5174 20.5396 11.5261 21.8301C11.3228 21.8388 11.1223 21.8368 10.919 21.8253C10.9219 20.9845 10.9257 20.1437 10.9171 19.303C10.8255 19.3328 10.7619 19.3819 10.7243 19.4503C10.3995 20.0253 10.1152 20.6243 9.76927 21.1868C9.65941 21.1829 9.54955 21.18 9.44065 21.1762C9.07347 20.4904 8.69955 19.8086 8.33238 19.1238C8.29961 20.0243 8.3237 20.9277 8.31792 21.8291C8.11072 21.8388 7.9122 21.858 7.70886 21.8022C7.66356 20.8603 7.70404 19.8905 7.69055 18.9437C7.70307 18.6182 7.63947 18.2513 7.76282 17.9518C7.94593 17.9556 8.12807 17.9566 8.31021 17.9547C8.81231 18.6943 9.13322 19.5601 9.64013 20.2949C10.0179 19.5813 10.4015 18.8686 10.7841 18.1559C10.9055 17.8295 11.2409 17.9932 11.5146 17.9575Z" fill="#262626"/>
<path d="M14.0414 17.9497C14.0636 18.1202 14.0838 18.2897 14.0858 18.4621C14.0809 19.5812 14.0848 20.7012 14.0829 21.8213C13.8699 21.8377 13.6646 21.8338 13.4526 21.8126C13.4584 20.5443 13.4632 19.2739 13.4497 18.0056C13.6444 17.9574 13.841 17.9516 14.0414 17.9497Z" fill="#262626"/>
<path d="M16.0479 17.9653C16.1963 17.9548 16.3457 17.9567 16.4941 17.9567C17.2362 18.8601 17.9242 19.8087 18.6634 20.7149C18.6827 19.8183 18.6779 18.9188 18.6663 18.0222C18.8774 18.0058 19.0874 18 19.2985 17.9991C19.3072 19.2723 19.2975 20.5464 19.3033 21.8196C19.0691 21.8167 18.8003 21.9275 18.6499 21.6896C17.9869 20.8286 17.3065 19.982 16.6435 19.121C16.6242 20.0225 16.6377 20.9249 16.6367 21.8273C16.4324 21.8379 16.231 21.8369 16.0267 21.8244C16.046 20.5406 16.0026 19.2472 16.0479 17.9653Z" fill="#262626"/>
<path d="M21.2548 17.9652C21.4437 17.9508 21.6345 17.9575 21.8243 17.9585C21.8474 19.2461 21.8234 20.5347 21.8368 21.8223C21.6354 21.8358 21.4369 21.8387 21.2355 21.8291C21.2499 20.5434 21.2114 19.249 21.2548 17.9652Z" fill="#262626"/>
<path d="M41.4926 17.9653C41.6824 17.9509 41.8742 17.9576 42.0641 17.9576C42.0872 19.2462 42.0631 20.5348 42.0766 21.8234C41.8742 21.836 41.6747 21.8379 41.4723 21.8273C41.4897 20.5425 41.4492 19.2482 41.4926 17.9653Z" fill="#262626"/>
<path d="M52.3296 17.9566C52.9801 17.9547 53.6875 17.9633 54.1954 18.4324C54.7765 19.0015 54.9095 19.9299 54.6425 20.6783C54.4257 21.2821 53.887 21.7309 53.2442 21.8031C52.6823 21.858 52.0916 21.8638 51.5297 21.808C51.5336 20.5482 51.5413 19.2866 51.5259 18.0269C51.761 17.9132 52.0694 17.9691 52.3296 17.9566Z" fill="#262626"/>
<path d="M57.5017 17.9635C57.6751 17.949 57.8515 17.9596 58.025 17.9625C58.5136 19.2444 58.9906 20.5339 59.5149 21.8014C59.2855 21.8447 59.0821 21.8505 58.8509 21.811C58.7342 21.4691 58.5993 21.1349 58.4779 20.7949C57.9806 20.7824 57.4833 20.7824 56.9861 20.7949C56.8627 21.1378 56.7317 21.4778 56.6112 21.8216C56.3992 21.836 56.1891 21.8428 55.978 21.8399C56.3365 20.7477 56.8068 19.6864 57.2048 18.6068C57.2887 18.394 57.3571 18.1436 57.5017 17.9635Z" fill="#262626"/>
<path d="M24.6587 17.9863C25.2437 17.8592 25.8229 18.048 26.3134 18.3658C26.2392 18.5276 26.164 18.6875 26.0889 18.8483C25.8586 18.7433 25.6282 18.6075 25.3854 18.5382C24.996 18.4688 24.6346 18.4621 24.3224 18.7356C24.3118 18.9196 24.3099 19.1035 24.3156 19.2875C24.8727 19.691 25.5492 19.5889 26.1188 20.0011C26.6488 20.3777 26.5688 21.3253 26.0089 21.6403C25.4702 21.9639 24.7117 21.9138 24.1422 21.699C23.9427 21.6104 23.6623 21.5189 23.5264 21.3427C23.5813 21.179 23.6642 21.021 23.7384 20.865C24.12 21.0403 24.4284 21.2656 24.864 21.3003C25.1579 21.3234 25.5502 21.334 25.7506 21.073C25.8441 20.8823 25.8422 20.5982 25.6408 20.474C25.1782 20.1533 24.4544 20.1822 23.9832 19.8258C23.5803 19.5725 23.5794 18.9889 23.7644 18.6037C23.9369 18.2425 24.2848 18.0701 24.6587 17.9863Z" fill="#262626"/>
<path d="M27.7963 17.9526C28.8246 17.9642 29.8548 17.9613 30.884 17.9546C30.8946 18.1424 30.9014 18.3311 30.9062 18.5189C30.4841 18.5199 30.061 18.518 29.6389 18.5218C29.6399 19.6236 29.637 20.7263 29.6408 21.8281C29.4384 21.8377 29.2389 21.8387 29.0375 21.829C29.0385 20.7273 29.0375 19.6245 29.0375 18.5218C28.6135 18.518 28.1885 18.518 27.7635 18.5218C27.7346 18.3215 27.7529 18.1481 27.7963 17.9526Z" fill="#262626"/>
<path d="M32.5389 17.9565C33.3552 17.9671 34.1753 17.945 34.9906 17.9671C35.1708 18.0644 35.0783 18.3379 35.1063 18.5103C34.4423 18.5296 33.7783 18.5132 33.1133 18.5209C33.1123 18.8782 33.1123 19.2346 33.1123 19.5909C33.6809 19.6198 34.2765 19.5341 34.8335 19.6429C34.8258 19.8047 34.8181 19.9665 34.8104 20.1283C34.2447 20.1293 33.678 20.1264 33.1123 20.1302C33.1123 20.5164 33.1123 20.9026 33.1143 21.2888C33.784 21.2888 34.4548 21.2898 35.1246 21.2878C35.1255 21.4679 35.1265 21.648 35.1275 21.8272C34.262 21.8512 33.3793 21.8541 32.5139 21.8252C32.5322 20.5376 32.483 19.2413 32.5389 17.9565Z" fill="#262626"/>
<path d="M36.8572 17.9536C37.3246 17.9652 37.792 17.9546 38.2594 17.9584C38.642 17.9681 39.0015 18.0239 39.278 18.3119C39.7204 18.7347 39.8052 19.4435 39.4621 19.952C39.3301 20.1504 39.1422 20.2612 38.9446 20.3835C39.2289 20.864 39.5305 21.3331 39.8158 21.8127C39.5835 21.8416 39.3667 21.8435 39.1335 21.8194C38.881 21.3831 38.5957 20.9671 38.3538 20.526C38.0493 20.5029 37.7438 20.5019 37.4373 20.5067C37.4373 20.9449 37.4354 21.3831 37.4402 21.8214C37.2388 21.8358 37.0384 21.8406 36.836 21.8329C36.8485 20.5405 36.809 19.2432 36.8572 17.9536Z" fill="#262626"/>
<path d="M45.3901 17.9626C45.8093 17.9 46.2256 18.0165 46.5793 18.2409C47.3445 18.7591 47.6635 19.8214 47.2982 20.6737C46.9812 21.5029 46.0753 22.0393 45.1983 21.8063C44.3184 21.5857 43.7412 20.6958 43.7961 19.8079C43.825 18.9093 44.4909 18.1013 45.3901 17.9626Z" fill="#262626"/>
<path d="M37.4375 18.5199C37.8133 18.5256 38.1921 18.5016 38.567 18.5314C39.1866 18.7202 39.2261 19.6669 38.6498 19.9317C38.2518 19.9837 37.8403 19.9452 37.4385 19.9568C37.4356 19.4772 37.4365 18.9985 37.4375 18.5199Z" fill="white"/>
<path d="M45.1452 18.6126C45.5355 18.4296 46.0048 18.4893 46.3344 18.7677C46.9917 19.3224 46.9811 20.4887 46.3373 21.0492C45.948 21.369 45.3726 21.3873 44.9621 21.0945C44.1506 20.5108 44.2355 19.0537 45.1452 18.6126Z" fill="white"/>
<path d="M52.1572 18.5208C52.614 18.54 53.1662 18.4331 53.5614 18.6845C53.9526 18.9079 54.1328 19.377 54.1396 19.8094C54.1598 20.2842 54.0297 20.8206 53.6057 21.0912C53.2009 21.3696 52.6285 21.2742 52.1591 21.2877C52.1563 20.3651 52.1592 19.4434 52.1572 18.5208Z" fill="white"/>
<path d="M57.7285 18.6538L57.743 18.6914C57.9559 19.2336 58.1487 19.7854 58.3463 20.3344C57.9328 20.3382 57.5194 20.3382 57.106 20.3344C57.3093 19.7729 57.5358 19.2191 57.7285 18.6538Z" fill="white"/>
<path d="M120.716 21.1186C121.673 21.1321 122.636 21.084 123.591 21.1504C124.385 21.3219 125.147 21.5183 125.848 21.9421C127.255 22.7424 128.285 24.1196 128.692 25.6817C128.796 26.0265 128.831 26.3703 128.823 26.7305C128.844 26.6342 128.863 26.5389 128.881 26.4426C128.889 26.9559 128.889 27.4682 128.881 27.9816C128.857 27.9074 128.832 27.8342 128.806 27.7601C128.842 28.1983 128.756 28.5931 128.623 29.0063C128.061 30.9064 126.529 32.4666 124.628 33.0406C123.345 33.4538 122.025 33.2872 120.674 33.3247C120.679 30.265 120.675 27.2044 120.676 24.1446C120.669 23.6487 120.703 23.1623 120.635 22.6682L120.703 22.6326C120.734 22.1299 120.708 21.6233 120.716 21.1186Z" fill="#FFCF00"/>
<path d="M72.0531 21.8531C74.2379 21.856 76.4255 21.8377 78.6102 21.8617L78.6748 21.8637C78.5813 22.273 78.6228 22.6707 78.6179 23.0849C78.616 26.5009 78.6218 29.9179 78.6151 33.334C76.4284 33.3561 74.2398 33.3436 72.0522 33.3398C72.0454 29.5115 72.0445 25.6813 72.0531 21.8531Z" fill="#FFCF00"/>
<path d="M78.6747 21.8641C79.2269 21.8776 79.784 21.8785 80.3362 21.8641C81.1997 21.8294 82.0535 21.9257 82.8592 22.2503C84.7336 22.9909 86.1233 24.7485 86.4047 26.7431C86.449 27.3508 86.4509 27.9691 86.3883 28.5748C86.2071 29.4994 85.8332 30.3854 85.2453 31.127C84.3712 32.2567 83.0423 33.0426 81.6266 33.2439C80.6397 33.3903 79.625 33.2843 78.615 33.3344C78.6217 29.9183 78.616 26.5013 78.6179 23.0853C78.6227 22.6712 78.5813 22.2734 78.6747 21.8641Z" fill="#FF0000"/>
<path d="M114.493 22.6786C115.584 22.6641 116.675 22.6815 117.766 22.6699C118.721 22.6824 119.68 22.7103 120.635 22.668C120.703 23.162 120.669 23.6484 120.676 24.1444C120.675 27.2041 120.679 30.2648 120.674 33.3245C119.705 33.338 118.735 33.3158 117.767 33.336C116.696 31.4763 115.585 29.6388 114.508 27.7819L114.47 27.7184C114.488 26.0407 114.443 24.3543 114.493 22.6786Z" fill="#FF0000"/>
<path d="M44.7577 25.6402C44.7616 25.9533 44.7606 26.2663 44.751 26.5783C44.2094 26.5802 43.6658 26.5658 43.1242 26.5889C43.1281 26.7574 43.131 26.925 43.1339 27.0926C43.5887 27.1003 44.0446 27.0984 44.4995 27.0955C44.5072 27.3844 44.5091 27.6733 44.5052 27.9622C44.0484 27.9603 43.5907 27.9603 43.1339 27.9622C43.1329 28.1577 43.1319 28.3533 43.131 28.5488C43.6784 28.5526 44.2258 28.5574 44.7741 28.5459C44.803 28.8618 44.803 29.1776 44.7972 29.4945C43.8914 29.4945 42.9845 29.4993 42.0786 29.4916C42.0815 28.2088 42.0796 26.925 42.0805 25.6422C42.9729 25.6364 43.8653 25.6393 44.7577 25.6402Z" fill="#262626"/>
<path d="M47.1457 25.641C47.6642 26.2747 48.1316 26.9584 48.6877 27.5594C48.7031 26.917 48.6761 26.2737 48.704 25.6313C49.0336 25.6419 49.3632 25.6429 49.6928 25.6294C49.7969 26.0811 49.7285 26.5713 49.7468 27.0336C49.7265 27.8522 49.7892 28.6833 49.7121 29.4991C49.4403 29.4952 49.1676 29.4942 48.8949 29.4952C48.3841 28.8711 47.8897 28.2336 47.377 27.6105C47.3664 28.2384 47.3741 28.8663 47.3722 29.4942C47.0214 29.4962 46.6706 29.4962 46.3198 29.4923C46.3208 28.2085 46.3189 26.9247 46.3208 25.6419C46.5954 25.639 46.8711 25.639 47.1457 25.641Z" fill="#262626"/>
<path d="M53.0064 25.6422C53.4959 25.648 53.9922 25.829 54.3373 26.1834C54.9107 26.8104 54.9974 27.812 54.6158 28.5565C54.3218 29.1151 53.7311 29.4627 53.1047 29.4897C52.5486 29.5032 51.9897 29.4984 51.4336 29.4878C51.4384 28.2078 51.4355 26.9269 51.4355 25.647C51.9578 25.6354 52.4831 25.6345 53.0064 25.6422Z" fill="#262626"/>
<path d="M29.1418 25.6323C30.0101 25.6477 30.8794 25.6352 31.7477 25.6391C31.7545 25.9521 31.7535 26.2651 31.7419 26.579C31.2225 26.5752 30.704 26.5771 30.1846 26.5771C30.1855 26.7842 30.1865 26.9912 30.1875 27.1983C30.6096 27.1983 31.0317 27.1983 31.4538 27.1973C31.4586 27.4824 31.4596 27.7675 31.4586 28.0525C31.0346 28.0554 30.6096 28.0506 30.1855 28.0593C30.1875 28.5331 30.1826 29.0079 30.1904 29.4818C29.8367 29.5001 29.483 29.4981 29.1283 29.4933C29.138 28.2066 29.112 26.918 29.1418 25.6323Z" fill="#262626"/>
<path d="M33.8407 25.6641C34.2223 25.6053 34.6299 25.6545 35.0174 25.6381C35.4269 26.92 35.8394 28.2037 36.2307 29.4914C35.8731 29.4972 35.5166 29.4981 35.159 29.4885C35.0973 29.2285 35.0193 28.9771 34.9258 28.7267C34.601 28.7344 34.2763 28.7344 33.9515 28.7209C33.8474 28.9752 33.7713 29.2381 33.6884 29.4991C33.3453 29.4943 33.0013 29.4952 32.6572 29.4943C32.7295 29.1187 32.8548 28.7614 32.9753 28.4002C33.2615 27.4853 33.5496 26.5838 33.8407 25.6641Z" fill="#262626"/>
<path d="M37.5271 25.6304C38.4908 25.6496 39.4555 25.6342 40.4201 25.639C40.4211 25.9097 40.4211 26.1813 40.4144 26.4519C39.8756 27.1414 39.3485 27.8445 38.8242 28.5456C39.3591 28.5562 39.8949 28.5533 40.4298 28.5485C40.451 28.8634 40.452 29.1784 40.4471 29.4943C39.442 29.4971 38.4368 29.4943 37.4307 29.4952C37.4297 29.2246 37.4297 28.954 37.4336 28.6833C38.0099 27.9909 38.566 27.2821 39.1394 26.5867C38.6035 26.5703 38.0677 26.5732 37.5319 26.5848C37.504 26.266 37.5049 25.9492 37.5271 25.6304Z" fill="#262626"/>
<path d="M57.1297 25.6402C57.521 25.6382 57.9122 25.6373 58.3025 25.6431C58.7141 26.924 59.1034 28.2116 59.5245 29.4886C59.1689 29.4963 58.8133 29.4963 58.4587 29.4963C58.3719 29.244 58.2929 28.9898 58.2187 28.7336C57.8853 28.7317 57.5518 28.7317 57.2174 28.7297C57.1326 28.9821 57.0555 29.2353 56.9842 29.4925C56.6257 29.4973 56.2672 29.4973 55.9087 29.4915C56.3154 28.2077 56.7201 26.923 57.1297 25.6402Z" fill="#262626"/>
<path d="M86.4748 25.7354C88.9486 25.7431 91.4225 25.7325 93.8963 25.7411C94.9227 27.2811 95.8941 28.8577 96.9243 30.3957L96.9031 30.4304C96.4675 31.1315 96.0637 31.8509 95.6445 32.5617C95.4884 32.8111 95.341 33.0625 95.2176 33.3293H95.1819C92.2831 33.3148 89.3823 33.3206 86.4835 33.3264C86.4632 30.7973 86.47 28.2644 86.4748 25.7354Z" fill="#00CF00"/>
<path d="M111.847 28.9032C112.854 30.1417 113.42 31.726 113.396 33.3237C108.79 33.3218 104.184 33.3257 99.5782 33.3218C99.5262 31.7077 100.149 30.0743 101.171 28.8348C102.209 27.577 103.716 26.691 105.331 26.4319C107.754 25.9976 110.32 26.977 111.847 28.9032Z" fill="#173DFF"/>
<path d="M52.4954 26.5876C52.7219 26.5664 52.9561 26.5654 53.1806 26.6011C53.5324 26.7099 53.7512 27.0556 53.754 27.4178C53.7839 27.8415 53.7088 28.2605 53.3069 28.4791C53.0496 28.5725 52.7508 28.6004 52.4829 28.5349C52.5031 27.8858 52.4742 27.2357 52.4954 26.5876Z" fill="white"/>
<path d="M57.716 26.7661L57.7285 26.7324C57.8374 27.1687 57.929 27.6021 58.0649 28.0307C57.8307 28.0335 57.5975 28.0345 57.3633 28.0345C57.4809 27.6127 57.5705 27.1793 57.716 26.7661Z" fill="white"/>
<path d="M34.4221 26.6958C34.558 27.1369 34.663 27.5857 34.7623 28.0364C34.5329 28.0354 34.3036 28.0335 34.0742 28.0287C34.1735 27.7013 34.2564 27.369 34.3392 27.0367C34.3672 26.9231 34.3951 26.8094 34.4221 26.6958Z" fill="white"/>
<path d="M143.133 26.8881C145.312 26.8833 147.491 26.892 149.67 26.8843C149.696 29.03 149.675 31.1787 149.679 33.3254C147.483 33.3263 145.287 33.3273 143.09 33.3244C143.09 31.1796 143.105 29.0339 143.083 26.8891L143.133 26.8881Z" fill="#173DFF"/>
<path d="M136.569 26.894C138.74 26.8863 140.912 26.8959 143.084 26.8892C143.105 29.0339 143.09 31.1797 143.09 33.3245C140.921 33.3206 138.751 33.3264 136.58 33.3216C136.568 31.1797 136.591 29.0349 136.569 26.894Z" fill="#262626"/>
<path d="M114.508 27.7822C115.585 29.639 116.696 31.4766 117.768 33.3363C116.681 33.3228 115.594 33.3286 114.506 33.3334C114.452 32.8365 114.48 32.3472 114.475 31.8493C114.492 30.4952 114.436 29.1344 114.508 27.7822Z" fill="#262626"/>
<path d="M96.9033 30.4307C97.1539 30.7446 97.3505 31.0884 97.5683 31.4236C97.9634 32.0631 98.4067 32.6737 98.7748 33.3276C97.5885 33.3276 96.4031 33.3247 95.2178 33.3295C95.3411 33.0628 95.4886 32.8114 95.6447 32.562C96.0639 31.8512 96.4677 31.1318 96.9033 30.4307Z" fill="#262626"/>
<path d="M90.0946 36.883C90.031 37.118 89.9019 37.3722 89.6253 37.3828C89.4229 37.3587 89.2283 37.2461 89.0365 37.1796C88.9835 37.2509 88.9305 37.3221 88.8784 37.3934C88.8052 37.3953 88.7319 37.3973 88.6597 37.3992C88.705 37.2268 88.7001 37.0737 88.8698 36.9706C89.0962 36.7963 89.3873 37.0612 89.6321 37.0843C89.7901 36.9764 89.8913 36.8782 90.0946 36.883Z" fill="#262626"/>
<path d="M137.796 36.9083C138.025 36.916 138.245 37.046 138.471 37.0932C138.583 36.9381 138.719 36.8688 138.878 36.8852C138.814 37.072 138.776 37.2376 138.59 37.3368C138.396 37.4601 138.181 37.3031 137.995 37.2396C137.831 37.1423 137.755 37.3031 137.647 37.3946C137.575 37.3937 137.502 37.3917 137.43 37.3898C137.508 37.1722 137.551 36.9911 137.796 36.9083Z" fill="#262626"/>
<path d="M89.1915 37.7103C89.3149 37.6987 89.4402 37.7006 89.5645 37.6978C89.9375 38.657 90.3201 39.6133 90.6747 40.5793C90.5109 40.5783 90.347 40.5774 90.1832 40.5745C90.0936 40.3116 89.9943 40.0535 89.8719 39.803C89.524 39.8127 89.1761 39.8117 88.8282 39.8088C88.7241 40.066 88.623 40.3241 88.5256 40.5841C88.3608 40.5793 88.1951 40.5726 88.0303 40.5658C88.3685 39.7154 88.6981 38.8621 89.0258 38.0088C89.0701 37.9125 89.1048 37.7787 89.1915 37.7103Z" fill="#262626"/>
<path d="M92.5821 37.7346C93.01 37.6056 93.4928 37.7712 93.806 38.0736C94.1828 38.4781 94.3746 39.0675 94.1838 39.604C93.993 40.2049 93.4552 40.6547 92.8037 40.6008C92.0867 40.5738 91.5779 39.9536 91.521 39.2688C91.4642 38.5899 91.9056 37.8993 92.5821 37.7346Z" fill="#262626"/>
<path d="M97.2859 37.7102C97.921 37.7063 98.5725 37.6755 99.2056 37.7314C99.2008 37.8662 99.196 38.001 99.1912 38.1359C98.7084 38.1388 98.2255 38.1378 97.7437 38.1368C97.7437 38.3969 97.7427 38.6579 97.7408 38.9188C98.159 38.9237 98.5783 38.9198 98.9965 38.9275C98.9955 39.0566 98.9946 39.1856 98.9946 39.3156C98.5773 39.3243 98.161 39.3214 97.7437 39.3214C97.7427 39.6036 97.7427 39.8858 97.7456 40.168C98.2352 40.1689 98.7247 40.167 99.2143 40.168C99.2143 40.3057 99.2153 40.4424 99.2153 40.5802C98.5677 40.5821 97.92 40.5821 97.2715 40.5802C97.2763 39.6248 97.2464 38.6636 97.2859 37.7102Z" fill="#262626"/>
<path d="M107.586 37.7026C107.588 37.8471 107.59 37.9925 107.592 38.137C107.107 38.138 106.623 38.137 106.139 38.137C106.138 38.4009 106.14 38.6638 106.147 38.9267C106.564 38.92 106.98 38.919 107.395 38.9277C107.394 39.0577 107.393 39.1877 107.391 39.3177C106.975 39.3225 106.558 39.3206 106.14 39.3225C106.14 39.6038 106.14 39.8859 106.142 40.1672C106.634 40.1701 107.124 40.1662 107.615 40.1701C107.616 40.3068 107.616 40.4426 107.617 40.5784C106.968 40.5842 106.32 40.5823 105.67 40.5794C105.675 39.6221 105.65 38.6619 105.683 37.7065C106.317 37.6978 106.952 37.7075 107.586 37.7026Z" fill="#262626"/>
<path d="M109.958 37.696C110.452 37.6758 110.842 37.9175 111.115 38.3201C110.996 38.4019 110.875 38.4838 110.755 38.5647C110.501 38.1573 110.028 38.0109 109.594 38.2257C108.913 38.6071 108.955 39.7917 109.677 40.1153C110.103 40.2963 110.539 40.1143 110.767 39.7281C110.898 39.7984 111.028 39.8697 111.158 39.9409C110.818 40.5641 110.054 40.7692 109.423 40.4774C108.895 40.2019 108.572 39.5634 108.639 38.975C108.705 38.2902 109.26 37.7239 109.958 37.696Z" fill="#262626"/>
<path d="M113.202 37.7287C113.878 37.5573 114.529 38.0051 114.755 38.636C115.065 39.471 114.55 40.5111 113.622 40.5949C112.827 40.6998 112.161 40.0363 112.128 39.2649C112.063 38.5676 112.511 37.8896 113.202 37.7287Z" fill="#262626"/>
<path d="M121.764 37.9733C121.864 38.0561 121.677 38.2911 121.641 38.3865C121.323 38.1977 121.03 38.0783 120.65 38.1399C120.322 38.1553 120.174 38.6128 120.48 38.7765C120.833 38.9643 121.408 38.9605 121.725 39.2542C122.083 39.5826 121.999 40.225 121.574 40.4619C120.981 40.7701 120.247 40.5967 119.716 40.2375C119.78 40.1162 119.844 39.989 119.918 39.8744C120.275 40.0006 120.538 40.2231 120.95 40.1903C121.24 40.1894 121.353 40.0834 121.486 39.8436C121.423 39.7463 121.368 39.6019 121.262 39.5451C120.896 39.3486 120.403 39.3534 120.066 39.0847C119.679 38.8006 119.792 38.1553 120.159 37.9011C120.64 37.5727 121.303 37.6555 121.764 37.9733Z" fill="#262626"/>
<path d="M135.144 37.7328C135.468 37.8243 135.844 38.0111 135.886 38.3858C135.78 38.4426 135.674 38.5004 135.568 38.5581C135.367 38.302 135.175 38.1142 134.823 38.1325C134.368 38.1093 134.049 38.4801 133.957 38.8943C133.834 39.4317 134.134 40.1058 134.729 40.179C135.127 40.2301 135.374 40.0211 135.606 39.7293C135.729 39.7967 135.85 39.865 135.973 39.9334C135.797 40.335 135.453 40.492 135.054 40.5999C135.182 40.8118 135.307 40.9832 135.134 41.223C134.917 41.4512 134.531 41.3511 134.274 41.249C134.309 41.1797 134.345 41.1113 134.386 41.0439C134.536 41.0381 134.686 41.0516 134.838 41.0467C135.001 40.8801 134.849 40.6278 134.634 40.6057C133.742 40.4381 133.21 39.4076 133.561 38.5784C133.802 37.9504 134.485 37.5691 135.144 37.7328Z" fill="#262626"/>
<path d="M141.439 37.7161C142.279 37.5514 143.002 38.2516 143.045 39.0683C143.092 39.8166 142.546 40.5726 141.761 40.6005C141.046 40.6631 140.474 40.1123 140.341 39.4391C140.186 38.683 140.67 37.875 141.439 37.7161Z" fill="#262626"/>
<path d="M78.7616 37.7211C78.9003 37.7095 79.0391 37.697 79.1779 37.6845C79.3331 38.3403 79.0998 39.1224 79.3292 39.7541C79.4978 40.2097 80.0982 40.3089 80.4558 40.0238C80.6418 39.8495 80.7237 39.6135 80.7285 39.3622C80.742 38.8277 80.7362 38.2903 80.7266 37.7557C80.8808 37.7259 81.035 37.7008 81.1892 37.6777C81.2374 38.2036 81.2113 38.7371 81.2133 39.2649C81.2104 39.6713 81.0918 40.0643 80.7854 40.3445C80.45 40.6354 79.9103 40.6594 79.5056 40.5285C79.0584 40.3657 78.8136 39.9159 78.7789 39.4604C78.7394 38.8835 78.7674 38.2999 78.7616 37.7211Z" fill="#262626"/>
<path d="M82.5851 37.7161C82.7846 37.718 82.9244 37.641 83.0593 37.8298C83.5556 38.4692 84.0577 39.1087 84.5472 39.7521C84.5636 39.0683 84.5405 38.3854 84.5617 37.7017C84.7169 37.7036 84.873 37.7055 85.0291 37.7065C85.0397 38.6628 85.0291 39.6192 85.0339 40.5755C84.8942 40.5611 84.6243 40.6352 84.5444 40.4888C84.049 39.8599 83.5575 39.2243 83.0583 38.5983C83.0439 39.2609 83.0593 39.9225 83.0477 40.5851C82.9244 40.5639 82.6593 40.6237 82.5813 40.5225C82.5668 39.5883 82.5639 38.6493 82.5851 37.7161Z" fill="#262626"/>
<path d="M86.4373 37.7222C86.5837 37.7106 86.7302 37.7 86.8767 37.6885C86.9287 38.6535 86.8912 39.6272 86.896 40.5941C86.737 40.5854 86.578 40.5748 86.4189 40.5633C86.4382 39.6166 86.4055 38.6679 86.4373 37.7222Z" fill="#262626"/>
<path d="M102.241 37.7123C102.665 37.7046 103.093 37.6883 103.516 37.7123C104.004 37.7576 104.395 38.1919 104.352 38.687C104.37 39.0838 104.142 39.3265 103.831 39.5316C104.053 39.8735 104.27 40.2173 104.466 40.5736C104.295 40.5775 104.123 40.5785 103.952 40.5794C103.754 40.2433 103.547 39.9139 103.338 39.5846C103.125 39.5865 102.912 39.5884 102.699 39.5913C102.699 39.9216 102.699 40.2529 102.696 40.5833C102.554 40.5823 102.411 40.5833 102.27 40.5708C102.202 40.4581 102.241 40.2635 102.229 40.1316C102.24 39.3255 102.218 38.5184 102.241 37.7123Z" fill="#262626"/>
<path d="M116.087 37.7067C116.202 37.7038 116.319 37.7019 116.435 37.698C116.988 38.3635 117.516 39.0569 118.036 39.7465C118.077 39.0637 117.974 38.3519 118.101 37.6807C118.239 37.6874 118.373 37.7057 118.503 37.7365C118.533 38.6823 118.51 39.6338 118.512 40.5805C118.375 40.5795 118.239 40.5776 118.103 40.5757C117.595 39.916 117.082 39.2572 116.559 38.61C116.551 39.2649 116.557 39.9208 116.556 40.5757C116.397 40.5767 116.238 40.5767 116.08 40.5767C116.084 39.6203 116.072 38.663 116.087 37.7067Z" fill="#262626"/>
<path d="M122.928 37.6987C123.696 37.7054 124.466 37.7083 125.234 37.6968C125.243 37.8432 125.251 37.9896 125.259 38.1359C124.946 38.1379 124.634 38.1379 124.321 38.1379C124.323 38.9526 124.33 39.7674 124.318 40.5812C124.166 40.5812 124.013 40.5802 123.86 40.5783C123.853 39.7664 123.859 38.9546 123.856 38.1427C123.539 38.1369 123.223 38.1359 122.905 38.1359C122.913 37.9896 122.92 37.8441 122.928 37.6987Z" fill="#262626"/>
<path d="M126.413 37.7056C126.865 37.7152 127.325 37.6757 127.774 37.7229C128.376 37.8241 128.712 38.5107 128.462 39.0597C128.372 39.2822 128.196 39.392 128.009 39.5249C128.228 39.8696 128.449 40.2192 128.647 40.5765C128.479 40.5765 128.298 40.5968 128.133 40.5602C127.906 40.2472 127.734 39.8966 127.507 39.5826C127.3 39.5855 127.092 39.5865 126.885 39.5884C126.883 39.9188 126.883 40.2501 126.881 40.5814C126.724 40.5794 126.567 40.5775 126.41 40.5746C126.412 39.6183 126.406 38.6619 126.413 37.7056Z" fill="#262626"/>
<path d="M129.802 37.7188C129.949 37.7092 130.095 37.6996 130.242 37.6899C130.316 38.3352 130.182 39.0219 130.334 39.6498C130.449 40.0302 130.762 40.2325 131.158 40.1708C131.525 40.1265 131.728 39.8039 131.769 39.4611C131.822 38.8765 131.758 38.2851 131.806 37.6986C131.953 37.7005 132.1 37.7015 132.247 37.7025C132.268 38.2235 132.259 38.7455 132.258 39.2655C132.261 39.645 132.134 40.0745 131.843 40.3317C131.514 40.6389 130.955 40.6562 130.548 40.5291C130.062 40.3577 129.844 39.8434 129.803 39.3638C129.779 38.8177 129.789 38.2659 129.802 37.7188Z" fill="#262626"/>
<path d="M137.961 37.7006C138.086 37.6997 138.213 37.6987 138.339 37.6968C138.458 37.9395 138.562 38.187 138.654 38.4412C138.916 39.1558 139.22 39.857 139.464 40.5783C139.306 40.5793 139.148 40.5802 138.99 40.5802C138.885 40.326 138.785 40.0708 138.688 39.8136C138.33 39.8088 137.973 39.8098 137.616 39.8117C137.516 40.0631 137.421 40.3154 137.333 40.5706C137.168 40.5754 137.004 40.5783 136.84 40.5802C137.188 39.6162 137.566 38.6454 137.961 37.7006Z" fill="#262626"/>
<path d="M92.5734 38.1851C92.8114 38.0994 93.1188 38.1061 93.3299 38.2573C93.8137 38.5578 93.8715 39.3283 93.5978 39.7809C93.3482 40.2057 92.743 40.3183 92.3671 39.9919C91.7985 39.5431 91.893 38.4817 92.5734 38.1851Z" fill="white"/>
<path d="M113.189 38.1786C113.491 38.0765 113.821 38.1324 114.054 38.3539C114.471 38.7796 114.468 39.5452 114.041 39.9642C113.749 40.2367 113.28 40.256 112.971 40.0008C112.392 39.551 112.486 38.455 113.189 38.1786Z" fill="white"/>
<path d="M141.425 38.167C141.665 38.1015 141.964 38.116 142.163 38.2855C142.71 38.6986 142.701 39.6328 142.147 40.0364C141.757 40.3137 141.201 40.1751 140.958 39.7715C140.657 39.2409 140.781 38.3837 141.425 38.167Z" fill="white"/>
<path d="M102.739 38.1372C103.043 38.1728 103.583 38.0264 103.784 38.3105C103.976 38.6023 103.902 38.949 103.628 39.1619C103.332 39.1532 103.036 39.1551 102.739 39.1561C102.739 38.8161 102.739 38.4771 102.739 38.1372Z" fill="white"/>
<path d="M126.884 38.1391C127.182 38.144 127.498 38.1093 127.792 38.168C128.145 38.3452 128.168 38.9626 127.809 39.1369C127.507 39.1802 127.189 39.1494 126.883 39.1542C126.883 38.8162 126.883 38.4772 126.884 38.1391Z" fill="white"/>
<path d="M89.3412 38.328L89.3595 38.2866C89.5185 38.6651 89.6505 39.0532 89.7912 39.4385C89.5031 39.4423 89.2159 39.4423 88.9277 39.4375C89.0521 39.0629 89.187 38.6921 89.3412 38.328Z" fill="white"/>
<path d="M138.126 38.3588L138.163 38.3357L138.188 38.3203C138.306 38.6978 138.452 39.0657 138.588 39.4375C138.297 39.4433 138.006 39.4433 137.716 39.4394C137.846 39.0783 137.963 38.7075 138.126 38.3588Z" fill="white"/>
</g>
<defs>
<clipPath id="clip0_19121_16136">
<rect width="162" height="48" fill="white"/>
</clipPath>
</defs>
</svg>
