<svg width="125" height="125" viewBox="0 0 125 125" fill="none" xmlns="http://www.w3.org/2000/svg">
<path d="M62.5004 5.22297C66.3765 5.13615 70.2514 5.45032 74.0629 6.16047C75.4442 6.43673 76.6594 7.25106 77.4408 8.42316C78.222 9.59513 78.506 11.0294 78.2299 12.4105C77.9536 13.7918 77.1393 15.007 75.9672 15.7884C74.7952 16.5696 73.361 16.8536 71.9799 16.5775C62.104 14.544 51.8353 15.749 42.6986 20.014C33.5619 24.2791 26.0432 31.3767 21.2602 40.2532C16.4771 49.1299 14.6841 59.3128 16.1469 69.2894C17.6097 79.2659 22.2504 88.5052 29.3803 95.6351C36.5102 102.765 45.7494 107.406 55.726 108.868C65.7024 110.331 75.8846 108.538 84.7611 103.755C93.6378 98.9721 100.736 91.4535 105.001 82.3167C109.266 73.1801 110.471 62.9114 108.438 53.0355C108.301 52.3653 108.297 51.6747 108.427 51.0032C108.557 50.3317 108.819 49.692 109.196 49.1214C109.573 48.5507 110.059 48.0599 110.626 47.6771C111.193 47.2942 111.83 47.0266 112.5 46.89C113.178 46.7542 113.876 46.7543 114.553 46.8909C115.23 47.0276 115.874 47.2982 116.446 47.6859C117.018 48.0736 117.507 48.5711 117.885 49.1497C118.263 49.7284 118.521 50.3772 118.646 51.057C119.419 54.827 119.803 58.6665 119.792 62.515C119.792 73.846 116.432 84.9226 110.137 94.3441C103.842 103.766 94.8938 111.109 84.4252 115.446C73.9566 119.782 62.4371 120.916 51.3236 118.705C40.2101 116.495 30.0011 111.038 21.9887 103.026C13.9765 95.0134 8.52054 84.805 6.30996 73.6917C4.09937 62.5782 5.23347 51.0588 9.56973 40.5902C13.906 30.1215 21.2497 21.1735 30.6713 14.8782C40.0928 8.58314 51.1693 5.22297 62.5004 5.22297ZM62.5004 26.056C63.8817 26.056 65.2063 26.6046 66.183 27.5814C67.1597 28.5581 67.7084 29.8827 67.7084 31.264V36.472H78.1254C79.5067 36.472 80.8313 37.0216 81.808 37.9984C82.7847 38.9751 83.3334 40.2997 83.3334 41.681C83.3333 43.0622 82.7847 44.3869 81.808 45.3636C80.8313 46.3403 79.5067 46.889 78.1254 46.889H57.2924C55.9111 46.889 54.5855 47.4376 53.6088 48.4144C52.6322 49.391 52.0835 50.7159 52.0834 52.097C52.0834 53.4783 52.6321 54.8038 53.6088 55.7806C54.5855 56.7573 55.9111 57.306 57.2924 57.306H67.7084C71.8524 57.306 75.827 58.9519 78.7572 61.8821C81.6875 64.8124 83.3334 68.787 83.3334 72.931C83.3333 77.0748 81.6873 81.0486 78.7572 83.9788C75.827 86.9091 71.8524 88.556 67.7084 88.556V93.764C67.7084 95.1453 67.1597 96.4698 66.183 97.4466C65.2063 98.4234 63.8817 98.972 62.5004 98.972C61.1191 98.972 59.7945 98.4234 58.8178 97.4466C57.841 96.4699 57.2924 95.1453 57.2924 93.764V88.556H46.8754C45.4942 88.556 44.1695 88.0072 43.1928 87.0306C42.216 86.0538 41.6674 84.7283 41.6674 83.347C41.6675 81.9658 42.2161 80.641 43.1928 79.6644C44.1695 78.6877 45.4942 78.139 46.8754 78.139H67.7084C69.0897 78.139 70.4152 77.5903 71.392 76.6136C72.3686 75.6369 72.9173 74.3121 72.9174 72.931C72.9174 71.5499 72.3685 70.2251 71.392 69.2484C70.4152 68.2716 69.0897 67.722 67.7084 67.722H57.2924C53.1484 67.722 49.1738 66.0761 46.2436 63.1458C43.3133 60.2156 41.6674 56.241 41.6674 52.097C41.6675 47.9532 43.3135 43.9793 46.2436 41.0491C49.1738 38.1189 53.1484 36.472 57.2924 36.472V31.264C57.2924 29.8827 57.841 28.5581 58.8178 27.5814C59.7945 26.6046 61.1191 26.056 62.5004 26.056ZM98.6156 5.4925C99.5021 5.12772 100.497 5.12768 101.383 5.4925C101.83 5.6661 102.238 5.92703 102.584 6.2591L113.508 17.2015C113.85 17.5406 114.121 17.9445 114.306 18.389C114.491 18.8333 114.585 19.31 114.585 19.7913C114.585 20.2729 114.491 20.7501 114.306 21.1946C114.121 21.6391 113.849 22.0421 113.508 22.3812C113.17 22.723 112.767 22.9948 112.324 23.18C111.88 23.3652 111.404 23.4603 110.923 23.4603C110.443 23.4603 109.967 23.3652 109.523 23.18C109.079 22.9948 108.677 22.723 108.338 22.3812L103.641 17.64V38.0296C103.641 38.9968 103.257 39.9247 102.575 40.6087C101.892 41.2928 100.965 41.677 99.9994 41.6771C99.0337 41.6771 98.1071 41.2928 97.4242 40.6087C96.7416 39.9247 96.3578 38.9968 96.3578 38.0296V17.64L91.6605 22.3812C90.9749 23.068 90.0452 23.4543 89.0756 23.4544C88.1059 23.4544 87.1753 23.068 86.4897 22.3812C85.8042 21.6943 85.4193 20.7626 85.4193 19.7913C85.4194 18.8201 85.8041 17.8883 86.4897 17.2015L97.4145 6.2591C97.7607 5.92707 98.1687 5.66609 98.6156 5.4925Z" fill="#EBFF00"/>
</svg>
