<svg width="125" height="125" viewBox="0 0 125 125" fill="none" xmlns="http://www.w3.org/2000/svg">
<path fill-rule="evenodd" clip-rule="evenodd" d="M86.6021 91.6779C87.5653 92.336 88.6018 92.8907 89.6939 93.3305C91.6586 94.1216 93.7646 94.5251 95.89 94.5176L97.9154 94.5312L76.9218 115.015C73.7795 118.074 69.5216 119.792 65.0824 119.792C60.6432 119.792 56.3853 118.074 53.243 115.015L32.2914 94.5755H35.5284C37.6548 94.5809 39.7612 94.1751 41.7259 93.3816C42.5481 93.0496 43.3387 92.6524 44.09 92.195C45.1341 91.5594 46.1025 90.8076 46.975 89.9527L63.5652 73.7679C64.15 73.2224 64.928 72.9179 65.7372 72.9179C66.5463 72.9179 67.3243 73.2224 67.9091 73.7679L84.4435 89.9084C85.1102 90.5603 85.8327 91.1521 86.6021 91.6779ZM65.7357 85.5413L77.4922 97.0178C77.4912 97.0168 77.4932 97.0188 77.4922 97.0178C77.4931 97.0187 77.497 97.0226 77.4979 97.0234C78.1047 97.6164 78.7392 98.1779 79.3986 98.7066L69.9861 107.891C69.9871 107.89 69.9852 107.891 69.9861 107.891C68.7257 109.116 66.965 109.849 65.0824 109.849C63.2002 109.849 61.4424 109.119 60.1821 107.894C60.1832 107.895 60.181 107.893 60.1821 107.894L51.3473 99.275C52.2521 98.5962 53.1137 97.8576 53.9257 97.0626C53.9284 97.0601 53.931 97.0575 53.9337 97.0549L65.7357 85.5413Z" fill="#EBFF00"/>
<path fill-rule="evenodd" clip-rule="evenodd" d="M76.9107 15.2C75.3553 13.6835 73.5086 12.4805 71.476 11.6598C69.4435 10.8391 67.265 10.4166 65.0649 10.4166C62.8649 10.4166 60.6864 10.8391 58.6538 11.6598C56.6213 12.4805 54.7746 13.6835 53.2192 15.2L32.2914 35.6137H35.5336C37.6612 35.6081 39.7688 36.0136 41.7345 36.8067C42.5554 37.1379 43.3447 37.534 44.095 37.9899C45.1415 38.6259 46.1121 39.3785 46.9863 40.2344L63.5853 56.4155C64.1623 56.9761 64.9438 57.2909 65.7585 57.2909C66.5732 57.2909 67.3546 56.9761 67.9316 56.4155L84.4712 40.2957C85.1314 39.6481 85.8467 39.0595 86.6084 38.5358C87.5772 37.8697 88.621 37.3085 89.7217 36.8641C91.6877 36.0703 93.7959 35.6649 95.9239 35.6715H97.9154L76.9107 15.2ZM79.4029 31.5132L69.9708 22.3206C69.3499 21.7152 68.5976 21.2206 67.7531 20.8795C66.9081 20.5383 65.9939 20.3597 65.0649 20.3597C64.1359 20.3597 63.2218 20.5383 62.3768 20.8795C61.533 21.2203 60.7826 21.713 60.162 22.3177C60.1615 22.3182 60.1626 22.3171 60.162 22.3177L51.3537 30.9095C52.2588 31.5878 53.1206 32.326 53.9329 33.1204C53.936 33.1235 53.9391 33.1265 53.9422 33.1295L65.759 44.6487L77.508 33.198C77.5123 33.1938 77.5166 33.1895 77.5209 33.1853C78.1219 32.5966 78.7501 32.0387 79.4029 31.5132Z" fill="#EBFF00"/>
<path fill-rule="evenodd" clip-rule="evenodd" d="M102.332 41.7186C102.048 41.8301 101.745 41.8889 101.438 41.8918H95.7137C92.7348 41.8989 89.8792 43.0357 87.7679 45.0549L71.3635 60.8073C69.8861 62.2243 67.884 63.0201 65.7966 63.0201C63.7092 63.0201 61.7071 62.2243 60.2297 60.8073L43.7629 44.995C41.6521 42.9745 38.7965 41.8366 35.8171 41.8285H28.7896C28.5 41.8222 28.2138 41.767 27.9441 41.6654L15.2752 53.8151C12.1636 56.8114 10.416 60.8713 10.416 65.1042C10.416 69.337 12.1636 73.3969 15.2752 76.3932L27.9164 88.5396C28.1855 88.4361 28.4721 88.3808 28.7619 88.3765H35.8171C38.7965 88.3681 41.6519 87.2301 43.7629 85.21L60.2262 69.391C61.7147 67.9625 63.7559 67.2483 65.7966 67.2484C67.837 67.2485 69.877 67.9627 71.3635 69.391L87.7679 85.1501C89.8792 87.1693 92.7348 88.306 95.7137 88.3132H101.438C101.745 88.3153 102.049 88.374 102.332 88.4863L114.921 76.3899C116.465 74.9076 117.689 73.1477 118.524 71.2106C119.359 69.2736 119.789 67.1975 119.789 65.1008C119.789 63.0041 119.359 60.928 118.524 58.991C117.689 57.0547 116.462 55.2955 114.92 53.8135C114.92 53.814 114.919 53.813 114.92 53.8135L102.332 41.7186ZM108.032 60.9848L98.5097 51.8348H95.7308C95.2539 51.8377 94.8704 52.0225 94.6439 52.2371C94.6427 52.2383 94.6414 52.2395 94.6401 52.2407L81.2489 65.0998L94.6401 77.9643C94.6414 77.9654 94.6389 77.9631 94.6401 77.9643C94.8666 78.1789 95.2538 78.3673 95.7308 78.3702H98.5097L108.032 69.2202C108.634 68.6421 109.091 67.9761 109.394 67.2736C109.696 66.5722 109.846 65.8351 109.846 65.1008C109.846 64.3666 109.696 63.6295 109.394 62.928C109.091 62.2257 108.634 61.5628 108.032 60.9848ZM50.3429 65.0984L36.8875 52.1778C36.8866 52.1769 36.8885 52.1787 36.8875 52.1778C36.6615 51.963 36.2751 51.7748 35.798 51.7715H31.7712L22.1719 60.9775C22.1701 60.9793 22.1682 60.9811 22.1663 60.9828C20.9599 62.1474 20.359 63.6377 20.359 65.1042C20.359 66.5717 20.9607 68.0631 22.169 69.228C22.17 69.229 22.168 69.2271 22.169 69.228L31.7494 78.4334H35.7968C36.2743 78.4301 36.6582 78.2448 36.885 78.0296C36.8861 78.0285 36.8838 78.0307 36.885 78.0296L50.3429 65.0984Z" fill="#EBFF00"/>
</svg>
