<svg width="125" height="125" viewBox="0 0 125 125" fill="none" xmlns="http://www.w3.org/2000/svg">
<path d="M62.5007 103.646C70.9208 101.042 77.952 95.8985 83.5944 88.2162C89.2368 80.5339 92.5354 71.9619 93.4902 62.5001H62.5007V21.4845L31.2507 33.2032V60.1563C31.2507 60.764 31.3375 61.5452 31.5111 62.5001H62.5007V103.646ZM62.5007 114.063C61.893 114.063 61.3288 114.019 60.8079 113.932C60.2871 113.846 59.7663 113.715 59.2454 113.542C47.5267 109.636 38.1951 102.409 31.2507 91.8621C24.3062 81.3152 20.834 69.9654 20.834 57.8126V33.2032C20.834 31.0331 21.4633 29.0799 22.722 27.3438C23.9807 25.6077 25.6083 24.349 27.6048 23.5678L58.8548 11.849C60.0701 11.415 61.2854 11.198 62.5007 11.198C63.7159 11.198 64.9312 11.415 66.1465 11.849L97.3965 23.5678C99.393 24.349 101.021 25.6077 102.279 27.3438C103.538 29.0799 104.167 31.0331 104.167 33.2032V57.8126C104.167 69.9654 100.695 81.3152 93.7507 91.8621C86.8062 102.409 77.4746 109.636 65.7559 113.542C65.235 113.715 64.7142 113.846 64.1934 113.932C63.6725 114.019 63.1083 114.063 62.5007 114.063Z" fill="#EBFF00"/>
</svg>
